<svg width="40" height="40" viewBox="0 0 40 40" fill="none" xmlns="http://www.w3.org/2000/svg">
<circle cx="20" cy="20" r="20" fill="#F2E6C1"/>
<path d="M22.8574 11.5181C23.0705 11.5181 23.2749 11.6027 23.4256 11.7534C23.5763 11.9041 23.661 12.1085 23.661 12.3216V13.1252H27.6789V17.9466H26.0564L28.263 24.0088C28.4211 24.4168 28.4942 24.8527 28.4779 25.29C28.4615 25.7272 28.3561 26.1565 28.168 26.5516C27.98 26.9466 27.7132 27.2991 27.3841 27.5875C27.0551 27.8758 26.6706 28.094 26.2542 28.2285C25.8379 28.3631 25.3985 28.4112 24.9629 28.3699C24.5273 28.3287 24.1047 28.199 23.721 27.9887C23.3373 27.7784 23.0006 27.492 22.7315 27.147C22.4623 26.802 22.2665 26.4057 22.1559 25.9824H18.7383C18.5557 26.6876 18.139 27.31 17.5565 27.7475C16.974 28.185 16.2602 28.4118 15.532 28.3907C14.8038 28.3696 14.1043 28.1019 13.5481 27.6313C12.9919 27.1608 12.612 26.5154 12.4705 25.8007C12.21 25.6647 11.9919 25.4599 11.8397 25.2086C11.6876 24.9572 11.6072 24.669 11.6074 24.3752V16.3395C11.6074 16.1264 11.6921 15.922 11.8428 15.7713C11.9935 15.6206 12.1979 15.5359 12.411 15.5359H18.036C18.2491 15.5359 18.4535 15.6206 18.6042 15.7713C18.7549 15.922 18.8396 16.1264 18.8396 16.3395V20.3574C18.8396 20.5705 18.9242 20.7749 19.0749 20.9256C19.2256 21.0763 19.43 21.1609 19.6431 21.1609H21.2503C21.4634 21.1609 21.6678 21.0763 21.8185 20.9256C21.9692 20.7749 22.0539 20.5705 22.0539 20.3574V13.1252H19.6431V11.5181H22.8574ZM15.6253 23.5716C15.199 23.5716 14.7903 23.741 14.4889 24.0424C14.1875 24.3438 14.0181 24.7525 14.0181 25.1788C14.0181 25.605 14.1875 26.0138 14.4889 26.3152C14.7903 26.6166 15.199 26.7859 15.6253 26.7859C16.0515 26.7859 16.4603 26.6166 16.7617 26.3152C17.0631 26.0138 17.2324 25.605 17.2324 25.1788C17.2324 24.7525 17.0631 24.3438 16.7617 24.0424C16.4603 23.741 16.0515 23.5716 15.6253 23.5716ZM25.2681 23.5708C24.9264 23.5709 24.5935 23.68 24.318 23.8822C24.0424 24.0843 23.8385 24.3691 23.7358 24.695C23.6331 25.021 23.6369 25.3712 23.7469 25.6949C23.8568 26.0185 24.067 26.2986 24.347 26.4946C24.627 26.6906 24.9622 26.7922 25.3038 26.7847C25.6455 26.7772 25.9759 26.661 26.2471 26.453C26.5182 26.2449 26.7159 25.9558 26.8116 25.6277C26.9072 25.2996 26.8957 24.9495 26.7789 24.6283L26.7652 24.593C26.6473 24.2919 26.4414 24.0334 26.1744 23.8512C25.9073 23.669 25.5915 23.5715 25.2681 23.5716M24.3464 17.9466H23.661V20.3574C23.661 20.9967 23.407 21.6099 22.9549 22.062C22.5028 22.5141 21.8896 22.7681 21.2503 22.7681H19.6431C19.0038 22.7681 18.3906 22.5141 17.9385 22.062C17.4864 21.6099 17.2324 20.9967 17.2324 20.3574H13.2146V23.0525C13.601 22.615 14.0991 22.2909 14.6557 22.1149C15.2123 21.939 15.8063 21.9178 16.374 22.0538C16.9416 22.1897 17.4616 22.4776 17.8781 22.8865C18.2947 23.2955 18.592 23.8101 18.7383 24.3752H22.1551C22.3572 23.5917 22.8475 22.9132 23.5279 22.4753C24.2083 22.0373 25.0289 21.8722 25.8258 22.0127L24.3464 17.9466ZM17.2324 17.1431H13.2146V18.7502H17.2324V17.1431ZM26.0717 14.7324H23.661V16.3395H26.0717V14.7324Z" fill="#A61E30"/>
</svg>
